<?xml version="1.0" encoding="utf-8"?>
<svg version="1.2" baseProfile="tiny" id="Layer_1" xmlns="http://www.w3.org/2000/svg" xmlns:xlink="http://www.w3.org/1999/xlink"
	 x="0px" y="0px" width="352px" height="85px" viewBox="0 0 255.118 63.896" xml:space="preserve">
<g>
	<path fill="#FFFFFF" d="M142.413,59.532l-0.001-27.518c-2.195,0.005-8.963,0.05-10.282,0.05c0.013,0.022,0.79,0.362,0.79,5.698
		v12.784c0,2.838-0.722,4.56-2.582,4.56c-1.792,0-2.478-1.328-2.478-3.271l-0.002-19.818c-1.513,0-7.969-0.096-10.279-0.176
		c0.012,0.021,0.788,0.361,0.788,5.698v17.464c0,4.766,3.435,8.892,8.039,8.892c4.025,0,5.485-1.74,6.644-2.99
		c0.369,1.03,0.791,2.344,2.972,2.344h7.201C143.182,63.217,142.413,62.937,142.413,59.532"/>
	<path fill="#FFFFFF" d="M106.902,30.909c-3.196-0.147-5.569,1.403-5.904,1.737V22.568c-1.92-0.163-8.5-0.751-10.352-0.954
		c0.012,0.021,0.857,0.359,0.857,5.695v2.671c-3.634-0.104-7.106,1.583-8.095,3.847c0.083-1.274-0.317-3.445-0.717-4.329
		c-1.396-0.144-7.262-0.908-8.911-1.199c0.064,0.047,0.894,1.174,0.894,4.523v24.732c0,5.335-0.778,5.684-0.789,5.704h10.881
		c-0.015-0.006-0.455-0.22-0.602-3.884l0.004-12.125c0-5.098,2.87-8.847,7.335-9.135l0.001,19.44c0,5.336-0.776,5.68-0.788,5.702
		h10.328c15.459,0,15.58-13.357,15.58-16.9C116.625,42.616,115.354,31.297,106.902,30.909z M104.261,54.967
		c-1.259,0.793-2.696,0.4-3.263,0.193V39.978c0.576-0.212,2.022-0.607,3.273,0.175c1.563,0.978,2.394,3.533,2.394,7.389
		C106.665,51.411,105.832,53.977,104.261,54.967z"/>
	<path fill="#FFFFFF" d="M71.937,57.555v-18.92c-0.264-7.014-5.791-12.78-12.673-13.141c-3.46-0.184-4.95,0.735-6.786,1.521
		l-1.949,9.131c1.645-1.459,11.161-4.023,11.161,3.278c-5.379,0.802-14.892,3.902-14.892,14.766c0,7.057,5.129,9.716,8.777,9.716
		c2.74,0,5.721-1.532,6.867-2.993c0.37,1.03,0.792,2.351,2.973,2.346h7.31C72.713,63.242,71.937,62.89,71.937,57.555 M61.901,52.834
		c0,1.616-0.249,3.68-2.566,3.68c-2.683,0-2.729-3.472-2.729-4.34c0-2.341,1.119-5.977,5.295-6.894V52.834z"/>
	<path fill="#FFFFFF" d="M187.754,25.906c-8.62,0.963-12.679,9.88-12.679,19.688c0,9.805,4.059,18.314,12.679,18.31
		c8.625-0.007,12.688-9.16,12.688-19.7C200.442,33.659,196.379,24.93,187.754,25.906 M187.754,55.232
		c-1.796,0.047-2.8-1.726-2.8-10.17s1.004-10.331,2.8-10.487c1.798-0.157,2.807,1.585,2.807,10.17S189.552,55.185,187.754,55.232"/>
	<path fill="#FFFFFF" d="M241.03,23.265c0-5.249,8.265-4.574,10.926-1.033V11.002c-11.729-3.152-22.235,2.356-22.235,12.13
		c0,13.719,16.819,17.559,14.594,26.34c-1.669,6.585-11.069,2.645-13.477-0.721v13.413c2.485-0.897,4.118,1.738,10.441,1.738
		c8.022,0,13.235-6.704,13.781-14.523C256.167,33.519,241.03,29.378,241.03,23.265"/>
	<path fill="#FFFFFF" d="M228.255,29.411l-0.002,28.142c0,5.336,0.777,5.684,0.788,5.705h-11.44c0.015-0.007,0.455-0.223,0.6-3.885
		l-0.002-24.13c0-1.4-0.515-5.213-2.854-4.806c-2.802,0.484-3.022,5.29-3.022,8.019l-0.002,20.925c0.146,3.662,0.586,3.873,0.6,3.88
		h-11.438c0.012-0.021,0.789-0.372,0.789-5.708l-0.001-27.755c0-4.193-1.349-5.705-1.36-5.718c2.578-0.624,6.826-1.578,9.537-2.376
		c0.546,0.943,1.242,3.178,1.348,4.577c1.082-2.939,3.329-6.914,8.06-7.667c2.196-0.349,4.144,0.464,5.593,1.944
		C227.287,22.445,228.255,25.594,228.255,29.411"/>
	<path fill="#FFFFFF" d="M0,0c2.015,0.782,9.849,4.025,14.549,5.646c-0.691,0.633-0.691,2.535-0.23,6.567l3.301,32.481l3.787-29.555
		c0.747-5.858,0.143-6.705,0-7.145c3.665,1.207,8.559,2.753,13.162,4.056c-0.75,0.807-0.656,3.889-0.216,7.773l3.008,28.291
		l4.423-26.657c0.907-5.152,0.065-7.083-0.256-7.563c2.74,0.708,10.881,2.603,11.634,2.771c-0.013,0.011-1.074,0.438-2.175,5.101
		l-7.353,34.685c-0.94,4.257-0.374,6.778-0.362,6.801H29.91c0.374-0.894,0.107-2.442-0.023-3.55l-3.07-23.993l-3.567,23.993
		c-0.131,1.107-0.397,2.656-0.024,3.55H9.865c0.011-0.022,0.961-1.44,0.231-6.801L3.361,12.553C1.561,2.153,0.027,0.028,0,0"/>
	<path fill="#FFFFFF" d="M160.396,25.848c2.17-0.372,7.435-1.268,10.282-1.778v5.854c1.933-0.309,5.993-1.031,7.666-1.44
		c-2.108,2.334-3.676,5.434-4.591,9.121l-3.075,0.574v14.3c0,3.934,2.772,2.725,3.331,2.503v8.05
		c-1.866,0.812-3.75,0.873-4.813,0.873c-3.964,0-8.013-2.12-8.013-8.683v-15.13c-3.937,0.895-6.169,5.22-6.169,9.174l-0.003,10.12
		c0.146,3.662,0.586,3.868,0.6,3.874h-10.878c0.012-0.021,0.789-0.36,0.787-5.697l0.002-19.846c0-5.337-0.777-5.677-0.789-5.698
		c0.908,0,7.341-0.191,8.685-0.267c0.458,0.855,0.854,3.569,0.822,4.877c1.098-1.705,2.813-4.527,6.943-5.33
		C161.16,26.199,160.408,25.869,160.396,25.848z"/>
</g>
<g>
	<g>
		<path fill="#FFFFFF" d="M179.537,13.849c0.132-1.768-2.394-1.695-3.544-1.561c-1.148,0.134-2.026,0.378-2.479,1.232l-0.234,0.44
			c0.314-0.178,0.921-0.437,1.599-0.645c-0.158,0.687-1.131,4.541-1.421,5.845c-0.074,0.279-0.161,0.509-0.253,0.698
			c-0.884,0.06-0.982,0.387-1.282,0.779c0.11-0.071,0.771-0.102,1.519-0.102c1.916,0,5.608-0.005,6.04-2.438
			c0.373-2.1-2.482-2.013-2.482-2.013C177.317,15.984,179.421,15.42,179.537,13.849z M178.043,14.197
			c-0.177,1.213-2.002,1.854-2.388,1.952c0.019,0.186,0.164,0.385,0.639,0.462c0.371,0.062,2.032,0.204,1.675,1.713
			c-0.434,1.829-2.231,1.639-3.843,1.555c0.216-0.205,0.442-0.529,0.572-1.028c0.392-1.675,1.155-4.756,1.416-5.821
			C177.24,12.867,178.208,13.059,178.043,14.197z"/>
		<path fill="#FFFFFF" d="M189.094,12.603c-0.26,0.216-1.104,0.745-1.785,1.089c-0.068,0.258-0.538,2.34-0.946,4.11
			c-0.412,0.807-1.051,1.507-1.648,1.437c-0.894-0.104,0.039-2.704,0.209-3.203c0.075-0.217,1.143-0.683,1.143-0.683
			c-0.249-0.055-0.568-0.072-0.895-0.074l0.199-0.529c-0.142-0.013-0.796,0.375-1.107,0.552c-0.184,0.008-0.343,0.015-0.455,0.013
			c-1.404-0.014-2.876,1.325-3.486,2.42c-0.204,0.368-1.082,2.108-0.36,2.556c0.629,0.388,2.452-1.403,3.312-2.453
			c-0.224,1.149-0.122,2.343,0.666,2.426c0.853,0.091,1.631-0.681,2.193-1.47c-0.174,0.741-0.314,1.32-0.372,1.508
			c0,0,0.577-0.502,0.983-0.741c0.271-0.139,0.335-0.317,0.381-0.474c0.09-0.375,0.228-0.945,0.343-1.438
			c0.386-0.854,1.147-1.891,1.582-1.746c0.538,0.18,0.045,1.694-1.201,2.154c0.022,0.112,0.449,1.998,1.201,2.177
			c0.612,0.146,1.18-0.37,1.588-0.772c0.07,0.284,0.223,0.53,0.476,0.713c0.771,0.56,3.176-0.09,4.669-2.233
			c-0.261,1.222-0.524,1.903-0.696,2.412c0.189-0.142,0.378-0.265,0.959-0.609c0.445-0.278,0.389-0.238,0.579-0.787
			c0.396-1.384,1.211-2.802,1.418-2.802c0.385,0,0.125,1.214,1.823,0.002c-0.014,0.019-0.026,0.038-0.039,0.058
			c-0.932,1.468,1.735,2.131,1.383,3.13c-0.144,0.406-0.948,0.845-2.218,0.024c-0.163,0.181-0.494,0.525-0.731,0.773
			c0.764,0.319,3.139,0.468,3.819-0.685c1.184-2.009-2.031-2.428-1.372-3.396c0.182-0.267,0.943-0.442,1.42,0.059
			c0.204-0.143,0.665-0.443,0.964-0.654c-0.604-0.456-1.947-0.533-2.843,0.254c-1.089,0.574-0.963-0.765-1.265-0.898
			c-0.444-0.195-1.185,0.704-1.831,1.936c0.144-0.393,0.223-0.837,0.201-1.101c-0.044-0.543-0.633-0.717-1.861,0.303
			c0.248-0.026,0.64-0.026,0.563,0.511c-0.019,0.117-0.035,0.231-0.054,0.344c-0.544,1.869-3.938,3.748-4.067,1.839
			c0.695-0.382,3.404-1.885,2.873-3.131c-0.394-0.92-1.484-0.362-2.076,0.012c-1.069,0.674-2.162,2.328-2.141,3.549
			c-1.053,0.715-1.482-0.65-1.65-1.367c1.093-0.716,2.115-1.928,1.513-2.529c-0.55-0.55-1.909,0.387-2.699,1.201
			c0.635-2.766,0.669-3.024,1.312-3.56L189.094,12.603z M181.116,19.134c-0.157-0.053,0.129-1.005,0.382-1.536
			c0.34-0.718,0.695-1.563,2.178-1.432C183.466,17.033,181.709,19.331,181.116,19.134z M192.897,16.238
			c0.46-0.517,0.859-0.537,0.924-0.024c0.121,0.953-1.474,1.774-1.923,2.078C192.101,17.169,192.723,16.435,192.897,16.238z"/>
	</g>
	<g>
		<path fill="#FFFFFF" d="M177.754,3.852c2.362-0.053,3.898,0.131,4.817-1.129c-0.564,0.224-3.269,0.42-5.711,0.395
			c-2.181-0.024-2.441,0.512-2.875,1.089c0.191-0.121,0.93-0.206,1.754-0.265c-0.095,0.375-0.354,1.423-0.65,2.618
			c-0.719,0.181-0.806,0.522-1.064,0.941c0.076-0.06,0.417-0.125,0.875-0.187c-0.472,1.894-0.973,3.876-1.05,4.032
			c0.951-0.314,1.313-0.695,1.54-1.483c0.044-0.149,0.355-1.355,0.693-2.673c0.856-0.073,1.736-0.113,2.104-0.083
			c0.184-0.21,0.893-0.695,1.05-0.749c-0.537-0.061-1.696-0.009-2.956,0.063c0.268-1.048,0.523-2.051,0.647-2.544
			C177.229,3.865,177.514,3.856,177.754,3.852z"/>
		<path fill="#FFFFFF" d="M194.715,3.181c-0.04,0.302-0.411,1.461-1.415,1.973c-0.238,0.12-0.081,0.275,0.21,0.171
			C193.77,5.23,196.089,4.374,194.715,3.181z"/>
		<path fill="#FFFFFF" d="M179.06,9.72c-0.157-0.053,0.081-0.908,0.381-1.536c0.307-0.641,0.696-1.563,2.179-1.431
			C181.409,7.619,179.652,9.917,179.06,9.72z M203.442,5.918c0.09-0.326-0.055-0.357-0.371-0.192l-1.174,0.603
			c0.319-0.142,0.229,0.649,0.036,1.081c-0.206,0.458-1.427,2.272-2.207,2.377c-0.273,0.036-0.335-0.236-0.257-0.902
			c0.071-0.604,0.299-1.926,0.655-2.938c0.085-0.33,0.069-0.481-0.302-0.274l-1.359,0.746c0.345-0.063,0.349,0.172,0.147,1.209
			c-0.193,1.031-1.159,2.12-1.711,2.055c-0.552-0.066,0.113-2.417,0.25-3.046c0.129-0.595,0.363-1.5,0.363-1.5
			c0.277-1.108,0.427-1.35,0.884-1.731l0.03-0.223c-0.26,0.217-1.125,0.719-1.805,1.062c0,0-0.519,2.059-0.868,3.249
			c-0.404,1.224-1.263,2.311-1.795,2.162c-0.564-0.156,0.57-3.355,0.817-3.851c0.121-0.241,0.029-0.325-0.176-0.197
			c-0.394,0.25-1.103,0.665-1.563,0.875c0.214-0.038,0.332,0.269,0.182,0.615c-0.535,1.711-1.919,2.531-2.148,2.506
			c-0.236-0.027-0.053-0.734,0.131-1.522s0.591-2.219,0.039-2.43c-0.744-0.282-1.899,0.739-2.646,1.572
			c0.162-0.516,0.334-1.227-0.109-1.492c-0.548-0.328-1.782,0.75-2.524,1.506c0.123-0.452,0.262-1.151-0.154-1.375
			c-0.415-0.224-1.431,0.552-1.706,0.893c0.262-0.092,0.472-0.118,0.59,0.013c0.05,0.055,0.055,0.217,0.031,0.448l-0.005-0.015
			c-0.184,1.115-1.168,2.73-2.061,2.625c-0.894-0.104,0.039-2.704,0.21-3.203c0.074-0.217,1.143-0.682,1.143-0.682
			c-0.249-0.056-0.569-0.073-0.895-0.075l0.198-0.529c-0.141-0.013-0.795,0.375-1.106,0.552c-0.185,0.008-0.343,0.015-0.456,0.013
			c-1.404-0.013-2.924,1.25-3.544,2.547c-0.191,0.399-0.959,2.086-0.303,2.428c0.655,0.342,2.452-1.401,3.312-2.451
			c-0.224,1.149-0.121,2.342,0.667,2.426c1.013,0.107,1.922-1.004,2.488-1.915c-0.212,0.837-0.457,1.659-0.559,1.94
			c0,0,0.559-0.451,1.117-0.769c0.18-0.11,0.29-0.256,0.368-0.479c0.519-1.521,1.526-2.953,1.954-2.953
			c0.553,0-0.67,3.898-0.709,4.043l1.107-0.756c0.146-0.111,0.225-0.178,0.324-0.479c0.342-0.935,1.298-2.887,2.034-2.887
			c0.446,0-0.165,1.889-0.289,2.507c-0.158,0.787-0.389,1.53,0.131,1.693c0.555,0.175,1.906-0.817,2.764-1.874
			c-0.268,0.801-0.469,1.765,0.086,1.848c0.82,0.124,2.111-0.851,2.779-1.891c-0.148,0.953-0.147,1.67,0.174,1.838
			c0.516,0.269,1.618-0.204,2.678-1.656c-0.116,0.674-0.174,1.478,0.362,1.703c0.427,0.178,1.725-0.077,3.1-2.348l-0.002,0.001
			l-0.287,1.462c-0.29,1.407-1.072,3.507-3.529,1.987c0.67,1.631,3.842,1.541,4.423-1.295L203.442,5.918z"/>
	</g>
</g>
</svg>
